<svg width="118" height="101" viewBox="0 0 118 101" fill="none" xmlns="http://www.w3.org/2000/svg">
<g clip-path="url(#clip0_13:4)">
<path d="M117.643 61.5775V4.46063C117.643 1.99709 115.574 0 113.022 0L12.7885 0C10.236 0 8.16683 1.99709 8.16683 4.46063V61.5775C8.16683 64.0411 10.236 66.0382 12.7885 66.0382H113.022C115.574 66.0382 117.643 64.0411 117.643 61.5775Z" fill="white"/>
<path fill-rule="evenodd" clip-rule="evenodd" d="M113.018 0C115.572 0 117.643 1.99438 117.643 4.46129V61.5769C117.643 64.0408 115.578 66.0382 113.018 66.0382H12.7923C10.2377 66.0382 8.16683 64.0438 8.16683 61.5769V4.46129C8.16683 1.99739 10.2319 0 12.7923 0L113.018 0ZM9.8774 33.0191C9.8774 34.8427 11.4091 36.321 13.2985 36.321C15.188 36.321 16.7197 34.8427 16.7197 33.0191C16.7197 31.1955 15.188 29.7172 13.2985 29.7172C11.4091 29.7172 9.8774 31.1955 9.8774 33.0191ZM112.512 4.95286V61.0853L18.4303 61.0853V4.95286L112.512 4.95286ZM115.163 32.3587C115.588 32.3587 115.933 32.6885 115.933 33.1016C115.933 33.5119 115.591 33.8446 115.163 33.8446C114.738 33.8446 114.393 33.5148 114.393 33.1016C114.393 32.6913 114.735 32.3587 115.163 32.3587Z" fill="#C1A189" fill-opacity="0.9"/>
<path d="M34.7033 15.6346H3.36124C1.50488 15.6346 0 17.087 0 18.8787V71.2064C0 72.9981 1.50488 74.4505 3.36124 74.4505H34.7033C36.5596 74.4505 38.0645 72.9981 38.0645 71.2064V18.8787C38.0645 17.087 36.5596 15.6346 34.7033 15.6346Z" fill="white"/>
<path fill-rule="evenodd" clip-rule="evenodd" d="M0 18.8806C0 17.0879 1.5039 15.6346 3.36127 15.6346H34.7032C36.5596 15.6346 38.0645 17.0885 38.0645 18.8806V71.2045C38.0645 72.9972 36.5606 74.4505 34.7032 74.4505H3.36127C1.50489 74.4505 0 72.9966 0 71.2045V18.8806ZM19.0323 73.5315C20.3462 73.5315 21.4113 72.5029 21.4113 71.234C21.4113 69.9651 20.3462 68.9365 19.0323 68.9365C17.7184 68.9365 16.6532 69.9651 16.6532 71.234C16.6532 72.5029 17.7184 73.5315 19.0323 73.5315ZM2.56204 18.8511H35.5025V68.0175H2.56204V18.8511ZM15.1892 17.2823C15.1892 17.0551 15.3797 16.871 15.6144 16.871H22.4684C22.7032 16.871 22.8936 17.0535 22.8936 17.2823C22.8936 17.5095 22.7032 17.6937 22.4684 17.6937H15.6144C15.3796 17.6937 15.1892 17.5111 15.1892 17.2823Z" fill="#C1A189" fill-opacity="0.9"/>
<path fill-rule="evenodd" clip-rule="evenodd" d="M94.3967 92.7633C94.381 94.3124 93.8484 95.6663 92.713 96.7807C91.8904 97.5867 91.0606 98.3844 90.2235 99.1739C89.2982 100.059 88.0883 100.616 86.791 100.755C85.1692 100.942 83.7152 100.532 82.4147 99.593C82.1917 99.4263 81.9812 99.2446 81.7849 99.0492L70.3954 88.1087C70.2344 87.954 70.0713 87.7999 69.913 87.6419C69.4541 87.1886 69.1684 86.5993 69.1024 85.9701C69.0345 85.3564 68.9271 84.7506 68.7084 84.167C67.9869 82.2097 66.1952 80.7983 64.0562 80.5021C63.8633 80.4753 63.6683 80.4564 63.4733 80.4446C61.9601 80.3526 60.6794 79.139 60.6808 77.616C60.6808 76.8372 60.943 76.1622 61.5076 75.6027C61.969 75.1457 62.4385 74.6959 62.9046 74.2429C62.9807 74.1685 63.0588 74.0953 63.1349 74.0216C63.4067 73.7604 63.3877 73.7826 63.1349 73.5339C62.2244 72.6369 61.3135 71.7402 60.4022 70.8437C58.6646 69.1315 56.9275 67.4192 55.1909 65.7066L52.6878 63.2364L47.3155 57.9434C46.5953 57.2331 45.8751 56.5226 45.1549 55.8119C44.9578 55.6161 44.7669 55.4202 44.5719 55.2211C44.4 55.0466 44.2157 54.8839 44.0202 54.7341C43.7314 54.5101 43.3874 54.3613 43.0214 54.302C42.6675 54.2469 42.3176 54.1704 41.9737 54.0728C41.3657 53.8988 40.8244 53.5569 40.4171 53.0897C39.2301 51.756 38.0751 50.4027 36.9594 49.0135C36.5518 48.501 36.1509 47.9781 35.7493 47.4591C35.6283 47.311 35.5283 47.1481 35.4518 46.9747C35.3009 46.6066 35.3322 46.2566 35.5876 45.9413C35.6267 45.8913 35.6689 45.8435 35.714 45.7984C36.201 45.3323 36.6863 44.8668 37.1701 44.402C37.2786 44.299 37.4045 44.2145 37.5424 44.152C37.7471 44.0496 37.9848 44.0262 38.2069 44.0867C38.4457 44.1583 38.67 44.2687 38.87 44.4131C39.7112 44.9876 40.5313 45.5882 41.3357 46.2109C42.2167 46.8903 43.0934 47.5749 43.9658 48.2647C44.243 48.4827 44.5026 48.7217 44.7812 48.9397C45.3526 49.3889 45.6739 49.9842 45.8574 50.6527C45.9262 50.8944 45.98 51.1399 46.0184 51.3878C46.0845 51.803 46.2788 52.1897 46.5762 52.4976C46.6904 52.6229 46.81 52.745 46.9343 52.8618C48.3661 54.2075 49.7972 55.5501 51.2277 56.8897L56.6191 61.9425L59.2336 64.3919L61.8711 66.8634L64.8124 69.619C65.2251 70.005 65.638 70.3906 66.0511 70.7758C66.105 70.8271 66.162 70.8755 66.2216 70.9207C66.2567 70.9485 66.3074 70.9485 66.3425 70.9207C66.401 70.875 66.4567 70.8247 66.5104 70.7738C67.0186 70.2872 67.5264 69.8005 68.0337 69.3135C68.2167 69.1347 68.4184 68.9745 68.6357 68.8356C69.7228 68.1521 71.3269 68.2363 72.3277 69.209C72.8597 69.7126 73.175 70.39 73.211 71.1067C73.2731 72.2416 73.693 73.3316 74.415 74.2318C75.3703 75.4336 76.6571 76.1197 78.1927 76.3808C78.4706 76.4278 78.7519 76.4546 79.0318 76.4918C79.695 76.5754 80.3096 76.8712 80.7766 77.3313L83.7104 80.1443C85.8013 82.1524 87.8917 84.1607 89.9817 86.1692C90.9037 87.0557 91.8304 87.937 92.7429 88.8327C93.6717 89.7466 94.1976 90.8466 94.3586 92.1111C94.3715 92.2149 94.3892 92.318 94.3953 92.4218C94.4007 92.5335 94.3967 92.6484 94.3967 92.7633ZM85.3513 65.0486C84.3282 65.0551 83.3086 64.9349 82.3176 64.6909C81.6602 64.5266 80.9657 64.5659 80.3329 64.8032C79.9439 64.9402 79.5871 65.1501 79.2832 65.4207C79.1337 65.5578 78.9883 65.6988 78.8422 65.8392L75.638 68.9159C75.5918 68.9603 75.5469 69.0053 75.498 69.0465C75.4301 69.1019 75.3845 69.0948 75.3411 69.0236C75.3078 68.9694 75.2792 68.9133 75.2493 68.8578C74.4678 67.3515 72.998 66.283 71.2767 65.9699C69.5555 65.6569 67.781 66.1353 66.4805 67.263C66.259 67.4523 66.2596 67.4588 66.0647 67.2734C65.1302 66.3995 64.1966 65.5247 63.264 64.6491C62.9834 64.388 62.9922 64.4291 63.2579 64.1732C65.7252 61.8026 68.1938 59.4327 70.6638 57.0634C70.958 56.7807 71.227 56.483 71.4146 56.124C71.6957 55.6127 71.8109 55.0322 71.7455 54.4573C71.6972 54.0656 71.6327 53.6739 71.5783 53.279C71.4934 52.666 71.4947 52.0497 71.5056 51.4335C71.5362 49.6761 71.9534 48.0016 72.6967 46.3996C74.1101 43.375 76.6614 40.9757 79.839 39.6828C84.6211 37.7269 90.1437 38.5425 94.0936 41.7881C94.2839 41.9435 94.2798 41.984 94.0678 42.0976C92.954 42.686 91.8397 43.2735 90.725 43.8602C89.526 44.4956 88.3279 45.1312 87.1307 45.767C86.3596 46.1744 85.585 46.5772 84.8131 46.9832C84.1942 47.3096 83.5786 47.6432 82.9562 47.9625C82.8006 48.0421 82.7334 48.1387 82.7402 48.3065C82.749 48.5147 82.7402 48.7243 82.7334 48.9332C82.7067 50.2071 82.6795 51.4809 82.6518 52.7548C82.6457 53.0159 82.6376 53.277 82.6186 53.5382C82.5955 53.6859 82.6758 53.8306 82.8163 53.8946C83.2858 54.1557 83.7471 54.4332 84.2112 54.7047L87.3869 56.5581C87.7497 56.7696 87.6736 56.7539 87.9984 56.5816C89.2481 55.9288 90.4958 55.2707 91.7414 54.6075L95.4274 52.6608C96.4556 52.1181 97.4838 51.5741 98.512 51.0287C98.8518 50.8479 98.8701 50.8544 98.8885 51.2383C99.0283 54.3149 98.0406 57.3412 96.0973 59.7902C94.4627 61.8438 92.2502 63.4046 89.7214 64.2881C88.8323 64.597 87.9125 64.8173 86.9765 64.9455C86.7727 64.9748 86.5688 64.9964 86.3609 65.0107C86.0253 65.0297 85.6883 65.0369 85.3513 65.0486ZM36.0918 92.7189C36.1183 91.1254 36.6877 89.7407 37.8515 88.5976C38.7633 87.702 39.6915 86.822 40.6135 85.9355L51.9357 75.0602L56.2902 70.8743C56.5518 70.623 56.5253 70.6132 56.7848 70.8743C57.5322 71.6172 58.2898 72.3517 59.0426 73.09C59.2238 73.2689 59.4036 73.4501 59.5821 73.6338C59.6929 73.748 59.6949 73.7722 59.5821 73.8949C59.3846 74.1025 59.203 74.3236 59.0386 74.5562C58.4131 75.4317 58.0768 76.4679 58.0737 77.5298C58.0602 78.9791 58.5847 80.2253 59.6018 81.2822C60.0407 81.7338 60.5606 82.1057 61.1367 82.3802C61.4764 82.5447 61.5022 82.5108 61.1937 82.8085C59.5513 84.3778 57.9123 85.9487 56.2766 87.5212C53.0719 90.6007 49.8675 93.68 46.6632 96.7591C46.3514 97.0648 46.0102 97.3413 45.644 97.585C44.7965 98.1428 43.8137 98.4819 42.7904 98.5694C41.3031 98.7032 39.9367 98.3703 38.7185 97.5478C37.2985 96.5894 36.4478 95.2746 36.1597 93.6256C36.1137 93.3254 36.091 93.0223 36.0918 92.7189Z" fill="white" stroke="white" stroke-width="10"/>
<path fill-rule="evenodd" clip-rule="evenodd" d="M94.3967 92.7632C94.381 94.3123 93.8484 95.6663 92.713 96.7806C91.8904 97.5866 91.0606 98.3844 90.2235 99.1738C89.2982 100.058 88.0883 100.616 86.791 100.755C85.1692 100.942 83.7152 100.532 82.4147 99.593C82.1917 99.4262 81.9812 99.2445 81.7849 99.0492L70.3954 88.1086C70.2344 87.9539 70.0713 87.7998 69.913 87.6418C69.4541 87.1885 69.1684 86.5992 69.1024 85.97C69.0345 85.3563 68.9271 84.7505 68.7084 84.1669C67.9869 82.2096 66.1952 80.7982 64.0562 80.502C63.8633 80.4752 63.6683 80.4563 63.4733 80.4446C61.9601 80.3525 60.6794 79.1389 60.6808 77.6159C60.6808 76.8371 60.943 76.1621 61.5076 75.6026C61.969 75.1456 62.4385 74.6959 62.9046 74.2428C62.9807 74.1684 63.0588 74.0953 63.1349 74.0215C63.4067 73.7604 63.3877 73.7826 63.1349 73.5338C62.2244 72.6369 61.3135 71.7401 60.4022 70.8436C58.6646 69.1315 56.9275 67.4191 55.1909 65.7066L52.6878 63.2363L47.3155 57.9433C46.5953 57.233 45.8751 56.5225 45.1549 55.8118C44.9578 55.616 44.7669 55.4201 44.5719 55.221C44.4 55.0466 44.2157 54.8838 44.0202 54.734C43.7314 54.51 43.3874 54.3612 43.0214 54.3019C42.6675 54.2468 42.3176 54.1703 41.9737 54.0727C41.3657 53.8988 40.8244 53.5569 40.4171 53.0896C39.2301 51.7559 38.0751 50.4026 36.9594 49.0134C36.5518 48.501 36.1509 47.978 35.7493 47.4591C35.6283 47.3109 35.5283 47.148 35.4518 46.9747C35.3009 46.6065 35.3322 46.2566 35.5876 45.9413C35.6267 45.8912 35.6689 45.8435 35.714 45.7983C36.201 45.3322 36.6863 44.8667 37.1701 44.4019C37.2786 44.2989 37.4045 44.2144 37.5424 44.1519C37.7471 44.0495 37.9848 44.0262 38.2069 44.0866C38.4457 44.1582 38.67 44.2686 38.87 44.413C39.7112 44.9875 40.5313 45.5881 41.3357 46.2109C42.2167 46.8902 43.0934 47.5748 43.9658 48.2646C44.243 48.4827 44.5026 48.7216 44.7812 48.9396C45.3526 49.3888 45.6739 49.9841 45.8574 50.6526C45.9262 50.8944 45.98 51.1398 46.0184 51.3877C46.0845 51.803 46.2788 52.1896 46.5762 52.4975C46.6904 52.6228 46.81 52.7449 46.9343 52.8618C48.3661 54.2074 49.7972 55.5501 51.2277 56.8896L56.6191 61.9424L59.2336 64.3918L61.8711 66.8634L64.8124 69.6189C65.2251 70.0049 65.638 70.3905 66.0511 70.7757C66.105 70.827 66.162 70.8754 66.2216 70.9206C66.2567 70.9484 66.3074 70.9484 66.3425 70.9206C66.401 70.8749 66.4567 70.8247 66.5104 70.7737C67.0186 70.2872 67.5264 69.8004 68.0337 69.3134C68.2167 69.1346 68.4184 68.9744 68.6357 68.8355C69.7228 68.152 71.3269 68.2362 72.3277 69.2089C72.8597 69.7125 73.175 70.39 73.211 71.1067C73.2731 72.2416 73.693 73.3315 74.415 74.2317C75.3703 75.4335 76.6571 76.1196 78.1927 76.3808C78.4706 76.4278 78.7519 76.4545 79.0318 76.4917C79.695 76.5754 80.3096 76.8711 80.7766 77.3313L83.7104 80.1443C85.8013 82.1523 87.8917 84.1606 89.9817 86.1691C90.9037 87.0556 91.8304 87.9369 92.7429 88.8326C93.6717 89.7465 94.1976 90.8465 94.3586 92.111C94.3715 92.2148 94.3892 92.318 94.3953 92.4218C94.4007 92.5334 94.3967 92.6483 94.3967 92.7632Z" fill="#E8EC40" stroke="#7E7474"/>
<path fill-rule="evenodd" clip-rule="evenodd" d="M85.3516 65.0486C84.3286 65.0551 83.309 64.9349 82.3179 64.6909C81.6606 64.5266 80.966 64.5659 80.3333 64.8032C79.9443 64.9402 79.5875 65.1501 79.2835 65.4207C79.1341 65.5578 78.9887 65.6988 78.8426 65.8392L75.6383 68.9159C75.5921 68.9603 75.5473 69.0053 75.4984 69.0465C75.4304 69.1019 75.3849 69.0948 75.3414 69.0236C75.3081 68.9694 75.2796 68.9133 75.2497 68.8578C74.4681 67.3515 72.9983 66.283 71.2771 65.9699C69.5559 65.6569 67.7813 66.1353 66.4808 67.263C66.2593 67.4523 66.26 67.4588 66.065 67.2734C65.1306 66.3995 64.197 65.5247 63.2644 64.6491C62.9838 64.388 62.9926 64.4291 63.2583 64.1732C65.7255 61.8026 68.1942 59.4327 70.6642 57.0634C70.9584 56.7807 71.2274 56.483 71.4149 56.124C71.6961 55.6127 71.8113 55.0322 71.7458 54.4573C71.6976 54.0656 71.633 53.6739 71.5787 53.279C71.4938 52.666 71.4951 52.0497 71.506 51.4335C71.5366 49.6761 71.9537 48.0016 72.697 46.3996C74.1105 43.375 76.6618 40.9757 79.8393 39.6828C84.6215 37.7269 90.144 38.5425 94.094 41.7881C94.2842 41.9435 94.2802 41.984 94.0682 42.0976C92.9543 42.686 91.8401 43.2735 90.7253 43.8602C89.5263 44.4956 88.3283 45.1312 87.1311 45.767C86.3599 46.1744 85.5854 46.5772 84.8135 46.9832C84.1945 47.3096 83.579 47.6432 82.9566 47.9625C82.801 48.0421 82.7337 48.1387 82.7405 48.3065C82.7494 48.5147 82.7405 48.7243 82.7337 48.9332C82.707 50.2071 82.6798 51.4809 82.6522 52.7548C82.6461 53.0159 82.6379 53.277 82.6189 53.5382C82.5959 53.6859 82.6762 53.8306 82.8166 53.8946C83.2861 54.1557 83.7475 54.4332 84.2115 54.7047L87.3872 56.5581C87.7501 56.7696 87.674 56.7539 87.9987 56.5816C89.2484 55.9288 90.4961 55.2707 91.7418 54.6075L95.4277 52.6608C96.456 52.1181 97.4842 51.5741 98.5124 51.0287C98.8521 50.8479 98.8705 50.8544 98.8888 51.2383C99.0286 54.3149 98.0409 57.3412 96.0977 59.7902C94.4631 61.8438 92.2506 63.4046 89.7218 64.2881C88.8327 64.597 87.9129 64.8173 86.9768 64.9455C86.773 64.9748 86.5692 64.9964 86.3613 65.0108C86.0256 65.0297 85.6886 65.0369 85.3516 65.0486Z" fill="#7E7474"/>
<path fill-rule="evenodd" clip-rule="evenodd" d="M36.0916 92.7189C36.1181 91.1254 36.6874 89.7407 37.8513 88.5976C38.7631 87.702 39.6913 86.822 40.6133 85.9355L51.9355 75.0602L56.29 70.8743C56.5516 70.623 56.5251 70.6132 56.7846 70.8743C57.532 71.6173 58.2896 72.3517 59.0424 73.09C59.2236 73.2689 59.4034 73.4501 59.5819 73.6338C59.6927 73.748 59.6947 73.7722 59.5819 73.8949C59.3844 74.1026 59.2028 74.3236 59.0384 74.5562C58.4129 75.4317 58.0766 76.468 58.0735 77.5298C58.06 78.9791 58.5845 80.2253 59.6016 81.2822C60.0405 81.7338 60.5604 82.1057 61.1365 82.3802C61.4762 82.5447 61.502 82.5108 61.1935 82.8085C59.5511 84.3778 57.9121 85.9487 56.2764 87.5212C53.0717 90.6007 49.8672 93.68 46.663 96.7591C46.3512 97.0648 46.01 97.3413 45.6438 97.585C44.7962 98.1428 43.8135 98.4819 42.7902 98.5694C41.3029 98.7032 39.9365 98.3703 38.7183 97.5478C37.2983 96.5894 36.4476 95.2746 36.1595 93.6256C36.1135 93.3254 36.0908 93.0223 36.0916 92.7189Z" fill="#7E7474"/>
</g>
<rect x="0.5" y="0.5" width="116.643" height="99.855" stroke="white"/>
<defs>
<clipPath id="clip0_13:4">
</clipPath>
</defs>
</svg>
